<mxfile host="65bd71144e">
    <diagram id="C5RBs43oDa-KdzZeNtuy" name="Page-1">
        <mxGraphModel dx="1930" dy="638" grid="1" gridSize="10" guides="1" tooltips="1" connect="1" arrows="1" fold="1" page="1" pageScale="1" pageWidth="827" pageHeight="1169" math="0" shadow="0">
            <root>
                <mxCell id="WIyWlLk6GJQsqaUBKTNV-0"/>
                <mxCell id="WIyWlLk6GJQsqaUBKTNV-1" parent="WIyWlLk6GJQsqaUBKTNV-0"/>
                <mxCell id="U9Vl8CcKDBj28J9De0o6-0" value="User" style="swimlane;fontStyle=1;align=center;verticalAlign=top;childLayout=stackLayout;horizontal=1;startSize=26;horizontalStack=0;resizeParent=1;resizeParentMax=0;resizeLast=0;collapsible=1;marginBottom=0;whiteSpace=wrap;html=1;" parent="WIyWlLk6GJQsqaUBKTNV-1" vertex="1">
                    <mxGeometry x="30" y="400" width="160" height="252" as="geometry">
                        <mxRectangle x="10" y="350" width="70" height="30" as="alternateBounds"/>
                    </mxGeometry>
                </mxCell>
                <mxCell id="U9Vl8CcKDBj28J9De0o6-1" value="+id : String&lt;div&gt;&lt;span style=&quot;background-color: transparent; color: light-dark(rgb(0, 0, 0), rgb(255, 255, 255));&quot;&gt;+firstName : String&lt;/span&gt;&lt;/div&gt;&lt;div&gt;+lastName : String&lt;/div&gt;&lt;div&gt;+phone : String&lt;/div&gt;&lt;div&gt;+email : String&lt;/div&gt;&lt;div&gt;+password : String&lt;/div&gt;&lt;div&gt;+role : String&lt;/div&gt;" style="text;strokeColor=none;fillColor=none;align=left;verticalAlign=top;spacingLeft=4;spacingRight=4;overflow=hidden;rotatable=0;points=[[0,0.5],[1,0.5]];portConstraint=eastwest;whiteSpace=wrap;html=1;" parent="U9Vl8CcKDBj28J9De0o6-0" vertex="1">
                    <mxGeometry y="26" width="160" height="134" as="geometry"/>
                </mxCell>
                <mxCell id="U9Vl8CcKDBj28J9De0o6-2" value="" style="line;strokeWidth=1;fillColor=none;align=left;verticalAlign=middle;spacingTop=-1;spacingLeft=3;spacingRight=3;rotatable=0;labelPosition=right;points=[];portConstraint=eastwest;strokeColor=inherit;" parent="U9Vl8CcKDBj28J9De0o6-0" vertex="1">
                    <mxGeometry y="160" width="160" height="8" as="geometry"/>
                </mxCell>
                <mxCell id="U9Vl8CcKDBj28J9De0o6-3" value="+Register()&lt;div&gt;+Login&lt;/div&gt;" style="text;strokeColor=none;fillColor=none;align=left;verticalAlign=top;spacingLeft=4;spacingRight=4;overflow=hidden;rotatable=0;points=[[0,0.5],[1,0.5]];portConstraint=eastwest;whiteSpace=wrap;html=1;" parent="U9Vl8CcKDBj28J9De0o6-0" vertex="1">
                    <mxGeometry y="168" width="160" height="84" as="geometry"/>
                </mxCell>
                <mxCell id="U9Vl8CcKDBj28J9De0o6-4" value="Car" style="swimlane;fontStyle=1;align=center;verticalAlign=top;childLayout=stackLayout;horizontal=1;startSize=26;horizontalStack=0;resizeParent=1;resizeParentMax=0;resizeLast=0;collapsible=1;marginBottom=0;whiteSpace=wrap;html=1;" parent="WIyWlLk6GJQsqaUBKTNV-1" vertex="1">
                    <mxGeometry x="320" y="21.5" width="160" height="330" as="geometry"/>
                </mxCell>
                <mxCell id="U9Vl8CcKDBj28J9De0o6-5" value="+ id : String&lt;div&gt;&lt;span style=&quot;background-color: transparent; color: light-dark(rgb(0, 0, 0), rgb(255, 255, 255));&quot;&gt;+model : String&lt;/span&gt;&lt;/div&gt;&lt;div&gt;+year : String&lt;/div&gt;&lt;div&gt;+colors : String[]&lt;/div&gt;&lt;div&gt;+seats : Integer&lt;/div&gt;&lt;div&gt;+doors : Integer&lt;/div&gt;&lt;div&gt;+maxSpeed : Integer&lt;/div&gt;&lt;div&gt;+type : String&lt;/div&gt;&lt;div&gt;+transmission : String&lt;/div&gt;&lt;div&gt;+driveType : String&lt;/div&gt;&lt;div&gt;+features : String[]&lt;/div&gt;&lt;div&gt;+price : Decimal&amp;nbsp;&lt;/div&gt;&lt;div&gt;+discount : Decimal&amp;nbsp;&lt;/div&gt;&lt;div&gt;+availability : boolean&lt;/div&gt;&lt;div&gt;+image : String&lt;/div&gt;" style="text;strokeColor=none;fillColor=none;align=left;verticalAlign=top;spacingLeft=4;spacingRight=4;overflow=hidden;rotatable=0;points=[[0,0.5],[1,0.5]];portConstraint=eastwest;whiteSpace=wrap;html=1;" parent="U9Vl8CcKDBj28J9De0o6-4" vertex="1">
                    <mxGeometry y="26" width="160" height="204" as="geometry"/>
                </mxCell>
                <mxCell id="U9Vl8CcKDBj28J9De0o6-6" value="" style="line;strokeWidth=1;fillColor=none;align=left;verticalAlign=middle;spacingTop=-1;spacingLeft=3;spacingRight=3;rotatable=0;labelPosition=right;points=[];portConstraint=eastwest;strokeColor=inherit;" parent="U9Vl8CcKDBj28J9De0o6-4" vertex="1">
                    <mxGeometry y="230" width="160" height="100" as="geometry"/>
                </mxCell>
                <mxCell id="U9Vl8CcKDBj28J9De0o6-8" value="Engine" style="swimlane;fontStyle=1;align=center;verticalAlign=top;childLayout=stackLayout;horizontal=1;startSize=26;horizontalStack=0;resizeParent=1;resizeParentMax=0;resizeLast=0;collapsible=1;marginBottom=0;whiteSpace=wrap;html=1;" parent="WIyWlLk6GJQsqaUBKTNV-1" vertex="1">
                    <mxGeometry x="640" y="280" width="160" height="190" as="geometry"/>
                </mxCell>
                <mxCell id="U9Vl8CcKDBj28J9De0o6-9" value="+id : String&lt;div&gt;+type : String&lt;/div&gt;&lt;div&gt;+capacity : String&lt;/div&gt;&lt;div&gt;+horsepower : unsigned Int&lt;/div&gt;" style="text;strokeColor=none;fillColor=none;align=left;verticalAlign=top;spacingLeft=4;spacingRight=4;overflow=hidden;rotatable=0;points=[[0,0.5],[1,0.5]];portConstraint=eastwest;whiteSpace=wrap;html=1;" parent="U9Vl8CcKDBj28J9De0o6-8" vertex="1">
                    <mxGeometry y="26" width="160" height="74" as="geometry"/>
                </mxCell>
                <mxCell id="U9Vl8CcKDBj28J9De0o6-10" value="" style="line;strokeWidth=1;fillColor=none;align=left;verticalAlign=middle;spacingTop=-1;spacingLeft=3;spacingRight=3;rotatable=0;labelPosition=right;points=[];portConstraint=eastwest;strokeColor=inherit;" parent="U9Vl8CcKDBj28J9De0o6-8" vertex="1">
                    <mxGeometry y="100" width="160" height="90" as="geometry"/>
                </mxCell>
                <mxCell id="U9Vl8CcKDBj28J9De0o6-20" value="Sales" style="swimlane;fontStyle=1;align=center;verticalAlign=top;childLayout=stackLayout;horizontal=1;startSize=26;horizontalStack=0;resizeParent=1;resizeParentMax=0;resizeLast=0;collapsible=1;marginBottom=0;whiteSpace=wrap;html=1;" parent="WIyWlLk6GJQsqaUBKTNV-1" vertex="1">
                    <mxGeometry x="320" y="610" width="160" height="210" as="geometry"/>
                </mxCell>
                <mxCell id="U9Vl8CcKDBj28J9De0o6-21" value="+id : unsigned Int&lt;div&gt;+carColor : String&lt;/div&gt;&lt;div&gt;+salePrice : Decimal&lt;/div&gt;&lt;div&gt;+saleDate : Date&lt;/div&gt;&lt;div&gt;+paymentStatus : String&lt;/div&gt;&lt;div&gt;+pickupStatus : String&lt;/div&gt;&lt;div&gt;&lt;br&gt;&lt;/div&gt;" style="text;strokeColor=none;fillColor=none;align=left;verticalAlign=top;spacingLeft=4;spacingRight=4;overflow=hidden;rotatable=0;points=[[0,0.5],[1,0.5]];portConstraint=eastwest;whiteSpace=wrap;html=1;" parent="U9Vl8CcKDBj28J9De0o6-20" vertex="1">
                    <mxGeometry y="26" width="160" height="104" as="geometry"/>
                </mxCell>
                <mxCell id="U9Vl8CcKDBj28J9De0o6-22" value="" style="line;strokeWidth=1;fillColor=none;align=left;verticalAlign=middle;spacingTop=-1;spacingLeft=3;spacingRight=3;rotatable=0;labelPosition=right;points=[];portConstraint=eastwest;strokeColor=inherit;" parent="U9Vl8CcKDBj28J9De0o6-20" vertex="1">
                    <mxGeometry y="130" width="160" height="80" as="geometry"/>
                </mxCell>
                <mxCell id="U9Vl8CcKDBj28J9De0o6-24" value="Sold in" style="endArrow=open;html=1;endSize=12;startArrow=diamondThin;startSize=14;startFill=0;edgeStyle=orthogonalEdgeStyle;rounded=0;entryX=0.5;entryY=0;entryDx=0;entryDy=0;exitX=0.5;exitY=1;exitDx=0;exitDy=0;" parent="WIyWlLk6GJQsqaUBKTNV-1" source="U9Vl8CcKDBj28J9De0o6-4" target="U9Vl8CcKDBj28J9De0o6-20" edge="1">
                    <mxGeometry x="0.0044" relative="1" as="geometry">
                        <mxPoint x="400" y="400" as="sourcePoint"/>
                        <mxPoint x="401" y="420" as="targetPoint"/>
                        <mxPoint as="offset"/>
                    </mxGeometry>
                </mxCell>
                <mxCell id="U9Vl8CcKDBj28J9De0o6-25" value="0..n" style="edgeLabel;resizable=0;html=1;align=left;verticalAlign=top;" parent="U9Vl8CcKDBj28J9De0o6-24" connectable="0" vertex="1">
                    <mxGeometry x="-1" relative="1" as="geometry">
                        <mxPoint x="14" y="29" as="offset"/>
                    </mxGeometry>
                </mxCell>
                <mxCell id="U9Vl8CcKDBj28J9De0o6-26" value="1" style="edgeLabel;resizable=0;html=1;align=right;verticalAlign=top;" parent="U9Vl8CcKDBj28J9De0o6-24" connectable="0" vertex="1">
                    <mxGeometry x="1" relative="1" as="geometry">
                        <mxPoint x="20" y="-30" as="offset"/>
                    </mxGeometry>
                </mxCell>
                <mxCell id="U9Vl8CcKDBj28J9De0o6-27" value="Made by" style="endArrow=open;html=1;endSize=12;startArrow=diamondThin;startSize=14;startFill=0;edgeStyle=orthogonalEdgeStyle;rounded=0;exitX=0.006;exitY=0.595;exitDx=0;exitDy=0;exitPerimeter=0;" parent="WIyWlLk6GJQsqaUBKTNV-1" source="U9Vl8CcKDBj28J9De0o6-21" target="U9Vl8CcKDBj28J9De0o6-1" edge="1">
                    <mxGeometry relative="1" as="geometry">
                        <mxPoint x="280" y="550" as="sourcePoint"/>
                        <mxPoint x="240" y="280" as="targetPoint"/>
                    </mxGeometry>
                </mxCell>
                <mxCell id="U9Vl8CcKDBj28J9De0o6-28" value="0..n" style="edgeLabel;resizable=0;html=1;align=left;verticalAlign=top;" parent="U9Vl8CcKDBj28J9De0o6-27" connectable="0" vertex="1">
                    <mxGeometry x="-1" relative="1" as="geometry">
                        <mxPoint x="-31" as="offset"/>
                    </mxGeometry>
                </mxCell>
                <mxCell id="U9Vl8CcKDBj28J9De0o6-29" value="1" style="edgeLabel;resizable=0;html=1;align=right;verticalAlign=top;" parent="U9Vl8CcKDBj28J9De0o6-27" connectable="0" vertex="1">
                    <mxGeometry x="1" relative="1" as="geometry">
                        <mxPoint x="30" y="-23" as="offset"/>
                    </mxGeometry>
                </mxCell>
                <mxCell id="U9Vl8CcKDBj28J9De0o6-30" value="1" style="endArrow=open;html=1;endSize=12;startArrow=diamondThin;startSize=14;startFill=1;edgeStyle=orthogonalEdgeStyle;align=left;verticalAlign=bottom;rounded=0;exitX=0.5;exitY=0;exitDx=0;exitDy=0;" parent="WIyWlLk6GJQsqaUBKTNV-1" source="U9Vl8CcKDBj28J9De0o6-8" target="U9Vl8CcKDBj28J9De0o6-5" edge="1">
                    <mxGeometry x="-0.9476" y="-10" relative="1" as="geometry">
                        <mxPoint x="520" y="270" as="sourcePoint"/>
                        <mxPoint x="680" y="270" as="targetPoint"/>
                        <mxPoint as="offset"/>
                    </mxGeometry>
                </mxCell>
                <mxCell id="U9Vl8CcKDBj28J9De0o6-32" value="1" style="text;html=1;align=center;verticalAlign=middle;whiteSpace=wrap;rounded=0;" parent="WIyWlLk6GJQsqaUBKTNV-1" vertex="1">
                    <mxGeometry x="470" y="160" width="60" height="30" as="geometry"/>
                </mxCell>
                <mxCell id="U9Vl8CcKDBj28J9De0o6-36" value="Belongs to" style="text;html=1;align=center;verticalAlign=middle;whiteSpace=wrap;rounded=1;shadow=0;glass=0;fillColor=default;arcSize=0;" parent="WIyWlLk6GJQsqaUBKTNV-1" vertex="1">
                    <mxGeometry x="590" y="127" width="70" height="33" as="geometry"/>
                </mxCell>
                <mxCell id="QWeLnU-rZkiwG0iUUEOY-4" value="Customer" style="swimlane;fontStyle=1;align=center;verticalAlign=top;childLayout=stackLayout;horizontal=1;startSize=26;horizontalStack=0;resizeParent=1;resizeParentMax=0;resizeLast=0;collapsible=1;marginBottom=0;whiteSpace=wrap;html=1;" parent="WIyWlLk6GJQsqaUBKTNV-1" vertex="1">
                    <mxGeometry x="-320" y="200" width="160" height="170" as="geometry"/>
                </mxCell>
                <mxCell id="QWeLnU-rZkiwG0iUUEOY-6" value="" style="line;strokeWidth=1;fillColor=none;align=left;verticalAlign=middle;spacingTop=-1;spacingLeft=3;spacingRight=3;rotatable=0;labelPosition=right;points=[];portConstraint=eastwest;strokeColor=inherit;" parent="QWeLnU-rZkiwG0iUUEOY-4" vertex="1">
                    <mxGeometry y="26" width="160" height="64" as="geometry"/>
                </mxCell>
                <mxCell id="QWeLnU-rZkiwG0iUUEOY-7" value="+BrowseCars()&lt;div&gt;+BuyCar()&lt;/div&gt;&lt;div&gt;+TrackOrder()&lt;/div&gt;" style="text;strokeColor=none;fillColor=none;align=left;verticalAlign=top;spacingLeft=4;spacingRight=4;overflow=hidden;rotatable=0;points=[[0,0.5],[1,0.5]];portConstraint=eastwest;whiteSpace=wrap;html=1;" parent="QWeLnU-rZkiwG0iUUEOY-4" vertex="1">
                    <mxGeometry y="90" width="160" height="80" as="geometry"/>
                </mxCell>
                <mxCell id="QWeLnU-rZkiwG0iUUEOY-24" value="Sales manager" style="swimlane;fontStyle=1;align=center;verticalAlign=top;childLayout=stackLayout;horizontal=1;startSize=26;horizontalStack=0;resizeParent=1;resizeParentMax=0;resizeLast=0;collapsible=1;marginBottom=0;whiteSpace=wrap;html=1;" parent="WIyWlLk6GJQsqaUBKTNV-1" vertex="1">
                    <mxGeometry x="-430" y="620" width="160" height="160" as="geometry"/>
                </mxCell>
                <mxCell id="QWeLnU-rZkiwG0iUUEOY-25" value="" style="line;strokeWidth=1;fillColor=none;align=left;verticalAlign=middle;spacingTop=-1;spacingLeft=3;spacingRight=3;rotatable=0;labelPosition=right;points=[];portConstraint=eastwest;strokeColor=inherit;" parent="QWeLnU-rZkiwG0iUUEOY-24" vertex="1">
                    <mxGeometry y="26" width="160" height="64" as="geometry"/>
                </mxCell>
                <mxCell id="QWeLnU-rZkiwG0iUUEOY-26" value="+ViiewSalesSumaries()&lt;div&gt;+ReplyInquirie()&lt;/div&gt;&lt;div&gt;+ManageSales()&lt;/div&gt;" style="text;strokeColor=none;fillColor=none;align=left;verticalAlign=top;spacingLeft=4;spacingRight=4;overflow=hidden;rotatable=0;points=[[0,0.5],[1,0.5]];portConstraint=eastwest;whiteSpace=wrap;html=1;" parent="QWeLnU-rZkiwG0iUUEOY-24" vertex="1">
                    <mxGeometry y="90" width="160" height="70" as="geometry"/>
                </mxCell>
                <mxCell id="QWeLnU-rZkiwG0iUUEOY-27" value="Payment manager" style="swimlane;fontStyle=1;align=center;verticalAlign=top;childLayout=stackLayout;horizontal=1;startSize=26;horizontalStack=0;resizeParent=1;resizeParentMax=0;resizeLast=0;collapsible=1;marginBottom=0;whiteSpace=wrap;html=1;" parent="WIyWlLk6GJQsqaUBKTNV-1" vertex="1">
                    <mxGeometry x="-190" y="680" width="190" height="180" as="geometry"/>
                </mxCell>
                <mxCell id="QWeLnU-rZkiwG0iUUEOY-28" value="" style="line;strokeWidth=1;fillColor=none;align=left;verticalAlign=middle;spacingTop=-1;spacingLeft=3;spacingRight=3;rotatable=0;labelPosition=right;points=[];portConstraint=eastwest;strokeColor=inherit;" parent="QWeLnU-rZkiwG0iUUEOY-27" vertex="1">
                    <mxGeometry y="26" width="190" height="64" as="geometry"/>
                </mxCell>
                <mxCell id="QWeLnU-rZkiwG0iUUEOY-29" value="+ManagePayments()&lt;div&gt;+ViiewPaymentsSumaries()&lt;/div&gt;&lt;div&gt;+TruckTruckPayments()&lt;/div&gt;" style="text;strokeColor=none;fillColor=none;align=left;verticalAlign=top;spacingLeft=4;spacingRight=4;overflow=hidden;rotatable=0;points=[[0,0.5],[1,0.5]];portConstraint=eastwest;whiteSpace=wrap;html=1;" parent="QWeLnU-rZkiwG0iUUEOY-27" vertex="1">
                    <mxGeometry y="90" width="190" height="90" as="geometry"/>
                </mxCell>
                <mxCell id="QWeLnU-rZkiwG0iUUEOY-30" value="" style="endArrow=block;html=1;rounded=0;align=center;verticalAlign=bottom;endFill=0;labelBackgroundColor=none;endSize=8;exitX=0.975;exitY=0.484;exitDx=0;exitDy=0;entryX=0;entryY=0.403;entryDx=0;entryDy=0;entryPerimeter=0;exitPerimeter=0;" parent="WIyWlLk6GJQsqaUBKTNV-1" source="QWeLnU-rZkiwG0iUUEOY-40" target="U9Vl8CcKDBj28J9De0o6-1" edge="1">
                    <mxGeometry relative="1" as="geometry">
                        <mxPoint x="-300" y="398" as="sourcePoint"/>
                        <mxPoint x="-120" y="400" as="targetPoint"/>
                    </mxGeometry>
                </mxCell>
                <mxCell id="QWeLnU-rZkiwG0iUUEOY-31" value="" style="resizable=0;html=1;align=center;verticalAlign=top;labelBackgroundColor=none;" parent="QWeLnU-rZkiwG0iUUEOY-30" connectable="0" vertex="1">
                    <mxGeometry relative="1" as="geometry"/>
                </mxCell>
                <mxCell id="QWeLnU-rZkiwG0iUUEOY-32" value="" style="endArrow=block;html=1;rounded=0;align=center;verticalAlign=bottom;endFill=0;labelBackgroundColor=none;endSize=8;exitX=1;exitY=0.5;exitDx=0;exitDy=0;entryX=-0.012;entryY=0.291;entryDx=0;entryDy=0;entryPerimeter=0;" parent="WIyWlLk6GJQsqaUBKTNV-1" source="QWeLnU-rZkiwG0iUUEOY-4" target="U9Vl8CcKDBj28J9De0o6-1" edge="1">
                    <mxGeometry relative="1" as="geometry">
                        <mxPoint x="-30" y="310" as="sourcePoint"/>
                        <mxPoint x="130" y="310" as="targetPoint"/>
                    </mxGeometry>
                </mxCell>
                <mxCell id="QWeLnU-rZkiwG0iUUEOY-33" value="" style="resizable=0;html=1;align=center;verticalAlign=top;labelBackgroundColor=none;" parent="QWeLnU-rZkiwG0iUUEOY-32" connectable="0" vertex="1">
                    <mxGeometry relative="1" as="geometry"/>
                </mxCell>
                <mxCell id="QWeLnU-rZkiwG0iUUEOY-34" value="" style="endArrow=block;html=1;rounded=0;align=center;verticalAlign=bottom;endFill=0;labelBackgroundColor=none;endSize=8;entryX=0;entryY=0.5;entryDx=0;entryDy=0;exitX=1;exitY=0.5;exitDx=0;exitDy=0;" parent="WIyWlLk6GJQsqaUBKTNV-1" source="QWeLnU-rZkiwG0iUUEOY-24" target="U9Vl8CcKDBj28J9De0o6-1" edge="1">
                    <mxGeometry relative="1" as="geometry">
                        <mxPoint x="-310" y="520" as="sourcePoint"/>
                        <mxPoint x="-110" y="525.5" as="targetPoint"/>
                    </mxGeometry>
                </mxCell>
                <mxCell id="QWeLnU-rZkiwG0iUUEOY-35" value="" style="resizable=0;html=1;align=center;verticalAlign=top;labelBackgroundColor=none;" parent="QWeLnU-rZkiwG0iUUEOY-34" connectable="0" vertex="1">
                    <mxGeometry relative="1" as="geometry"/>
                </mxCell>
                <mxCell id="QWeLnU-rZkiwG0iUUEOY-36" value="" style="endArrow=block;html=1;rounded=0;align=center;verticalAlign=bottom;endFill=0;labelBackgroundColor=none;endSize=8;entryX=-0.025;entryY=0.612;entryDx=0;entryDy=0;entryPerimeter=0;exitX=1;exitY=0.086;exitDx=0;exitDy=0;exitPerimeter=0;" parent="WIyWlLk6GJQsqaUBKTNV-1" source="QWeLnU-rZkiwG0iUUEOY-27" target="U9Vl8CcKDBj28J9De0o6-1" edge="1">
                    <mxGeometry relative="1" as="geometry">
                        <mxPoint x="-130" y="705" as="sourcePoint"/>
                        <mxPoint x="50" y="704.5" as="targetPoint"/>
                    </mxGeometry>
                </mxCell>
                <mxCell id="QWeLnU-rZkiwG0iUUEOY-37" value="" style="resizable=0;html=1;align=center;verticalAlign=top;labelBackgroundColor=none;" parent="QWeLnU-rZkiwG0iUUEOY-36" connectable="0" vertex="1">
                    <mxGeometry relative="1" as="geometry"/>
                </mxCell>
                <mxCell id="QWeLnU-rZkiwG0iUUEOY-39" value="Admin" style="swimlane;fontStyle=1;align=center;verticalAlign=top;childLayout=stackLayout;horizontal=1;startSize=26;horizontalStack=0;resizeParent=1;resizeParentMax=0;resizeLast=0;collapsible=1;marginBottom=0;whiteSpace=wrap;html=1;" parent="WIyWlLk6GJQsqaUBKTNV-1" vertex="1">
                    <mxGeometry x="-370" y="410" width="160" height="160" as="geometry"/>
                </mxCell>
                <mxCell id="QWeLnU-rZkiwG0iUUEOY-40" value="" style="line;strokeWidth=1;fillColor=none;align=left;verticalAlign=middle;spacingTop=-1;spacingLeft=3;spacingRight=3;rotatable=0;labelPosition=right;points=[];portConstraint=eastwest;strokeColor=inherit;" parent="QWeLnU-rZkiwG0iUUEOY-39" vertex="1">
                    <mxGeometry y="26" width="160" height="64" as="geometry"/>
                </mxCell>
                <mxCell id="QWeLnU-rZkiwG0iUUEOY-41" value="+ManageCars()&lt;div&gt;+ManageUsers()&lt;/div&gt;&lt;div&gt;+ViewSalesReports()&lt;/div&gt;" style="text;strokeColor=none;fillColor=none;align=left;verticalAlign=top;spacingLeft=4;spacingRight=4;overflow=hidden;rotatable=0;points=[[0,0.5],[1,0.5]];portConstraint=eastwest;whiteSpace=wrap;html=1;" parent="QWeLnU-rZkiwG0iUUEOY-39" vertex="1">
                    <mxGeometry y="90" width="160" height="70" as="geometry"/>
                </mxCell>
                <mxCell id="j4--80lrZNphZKlG1s33-0" value="Payment" style="swimlane;fontStyle=1;align=center;verticalAlign=top;childLayout=stackLayout;horizontal=1;startSize=26;horizontalStack=0;resizeParent=1;resizeParentMax=0;resizeLast=0;collapsible=1;marginBottom=0;whiteSpace=wrap;html=1;" parent="WIyWlLk6GJQsqaUBKTNV-1" vertex="1">
                    <mxGeometry x="660" y="520" width="160" height="190" as="geometry"/>
                </mxCell>
                <mxCell id="j4--80lrZNphZKlG1s33-1" value="+id : String&lt;div&gt;+paymentDate : Date&lt;/div&gt;&lt;div&gt;+paymentAmount : Decimal&lt;/div&gt;&lt;div&gt;+paymentType : String&lt;/div&gt;" style="text;strokeColor=none;fillColor=none;align=left;verticalAlign=top;spacingLeft=4;spacingRight=4;overflow=hidden;rotatable=0;points=[[0,0.5],[1,0.5]];portConstraint=eastwest;whiteSpace=wrap;html=1;" parent="j4--80lrZNphZKlG1s33-0" vertex="1">
                    <mxGeometry y="26" width="160" height="74" as="geometry"/>
                </mxCell>
                <mxCell id="j4--80lrZNphZKlG1s33-2" value="" style="line;strokeWidth=1;fillColor=none;align=left;verticalAlign=middle;spacingTop=-1;spacingLeft=3;spacingRight=3;rotatable=0;labelPosition=right;points=[];portConstraint=eastwest;strokeColor=inherit;" parent="j4--80lrZNphZKlG1s33-0" vertex="1">
                    <mxGeometry y="100" width="160" height="90" as="geometry"/>
                </mxCell>
                <mxCell id="j4--80lrZNphZKlG1s33-3" value="Pay to" style="endArrow=open;html=1;endSize=12;startArrow=diamondThin;startSize=14;startFill=0;edgeStyle=orthogonalEdgeStyle;rounded=0;exitX=-0.006;exitY=0.784;exitDx=0;exitDy=0;exitPerimeter=0;entryX=1;entryY=0.5;entryDx=0;entryDy=0;" parent="WIyWlLk6GJQsqaUBKTNV-1" source="j4--80lrZNphZKlG1s33-1" target="U9Vl8CcKDBj28J9De0o6-21" edge="1">
                    <mxGeometry relative="1" as="geometry">
                        <mxPoint x="291" y="226.5" as="sourcePoint"/>
                        <mxPoint x="160" y="21.5" as="targetPoint"/>
                    </mxGeometry>
                </mxCell>
                <mxCell id="j4--80lrZNphZKlG1s33-4" value="0..n" style="edgeLabel;resizable=0;html=1;align=left;verticalAlign=top;" parent="j4--80lrZNphZKlG1s33-3" connectable="0" vertex="1">
                    <mxGeometry x="-1" relative="1" as="geometry">
                        <mxPoint x="-31" as="offset"/>
                    </mxGeometry>
                </mxCell>
                <mxCell id="j4--80lrZNphZKlG1s33-5" value="1" style="edgeLabel;resizable=0;html=1;align=right;verticalAlign=top;" parent="j4--80lrZNphZKlG1s33-3" connectable="0" vertex="1">
                    <mxGeometry x="1" relative="1" as="geometry">
                        <mxPoint x="30" y="-23" as="offset"/>
                    </mxGeometry>
                </mxCell>
                <mxCell id="j4--80lrZNphZKlG1s33-6" value="Inquiry" style="swimlane;fontStyle=1;align=center;verticalAlign=top;childLayout=stackLayout;horizontal=1;startSize=26;horizontalStack=0;resizeParent=1;resizeParentMax=0;resizeLast=0;collapsible=1;marginBottom=0;whiteSpace=wrap;html=1;" parent="WIyWlLk6GJQsqaUBKTNV-1" vertex="1">
                    <mxGeometry x="200" y="910" width="160" height="210" as="geometry"/>
                </mxCell>
                <mxCell id="j4--80lrZNphZKlG1s33-7" value="+id : String&lt;div&gt;+fullName : String&lt;/div&gt;&lt;div&gt;+email : String&lt;/div&gt;&lt;div&gt;+message : String&lt;/div&gt;&lt;div&gt;+answered : Boolean&lt;/div&gt;" style="text;strokeColor=none;fillColor=none;align=left;verticalAlign=top;spacingLeft=4;spacingRight=4;overflow=hidden;rotatable=0;points=[[0,0.5],[1,0.5]];portConstraint=eastwest;whiteSpace=wrap;html=1;" parent="j4--80lrZNphZKlG1s33-6" vertex="1">
                    <mxGeometry y="26" width="160" height="94" as="geometry"/>
                </mxCell>
                <mxCell id="j4--80lrZNphZKlG1s33-8" value="" style="line;strokeWidth=1;fillColor=none;align=left;verticalAlign=middle;spacingTop=-1;spacingLeft=3;spacingRight=3;rotatable=0;labelPosition=right;points=[];portConstraint=eastwest;strokeColor=inherit;" parent="j4--80lrZNphZKlG1s33-6" vertex="1">
                    <mxGeometry y="120" width="160" height="90" as="geometry"/>
                </mxCell>
                <mxCell id="j4--80lrZNphZKlG1s33-9" value="Answerd by" style="endArrow=open;html=1;endSize=12;startArrow=diamondThin;startSize=14;startFill=0;edgeStyle=orthogonalEdgeStyle;rounded=0;exitX=0.425;exitY=1.043;exitDx=0;exitDy=0;exitPerimeter=0;entryX=-0.006;entryY=0.926;entryDx=0;entryDy=0;entryPerimeter=0;" parent="WIyWlLk6GJQsqaUBKTNV-1" source="QWeLnU-rZkiwG0iUUEOY-26" target="j4--80lrZNphZKlG1s33-7" edge="1">
                    <mxGeometry relative="1" as="geometry">
                        <mxPoint x="61" y="1085" as="sourcePoint"/>
                        <mxPoint x="-70" y="880" as="targetPoint"/>
                        <Array as="points">
                            <mxPoint x="-362" y="1020"/>
                            <mxPoint x="-50" y="1020"/>
                            <mxPoint x="-50" y="1023"/>
                        </Array>
                    </mxGeometry>
                </mxCell>
                <mxCell id="j4--80lrZNphZKlG1s33-10" value="0..n" style="edgeLabel;resizable=0;html=1;align=left;verticalAlign=top;" parent="j4--80lrZNphZKlG1s33-9" connectable="0" vertex="1">
                    <mxGeometry x="-1" relative="1" as="geometry">
                        <mxPoint x="-31" as="offset"/>
                    </mxGeometry>
                </mxCell>
                <mxCell id="j4--80lrZNphZKlG1s33-11" value="1" style="edgeLabel;resizable=0;html=1;align=right;verticalAlign=top;" parent="j4--80lrZNphZKlG1s33-9" connectable="0" vertex="1">
                    <mxGeometry x="1" relative="1" as="geometry">
                        <mxPoint x="-29" y="-23" as="offset"/>
                    </mxGeometry>
                </mxCell>
                <mxCell id="j4--80lrZNphZKlG1s33-12" value="Review" style="swimlane;fontStyle=1;align=center;verticalAlign=top;childLayout=stackLayout;horizontal=1;startSize=26;horizontalStack=0;resizeParent=1;resizeParentMax=0;resizeLast=0;collapsible=1;marginBottom=0;whiteSpace=wrap;html=1;" parent="WIyWlLk6GJQsqaUBKTNV-1" vertex="1">
                    <mxGeometry x="-10" width="160" height="160" as="geometry"/>
                </mxCell>
                <mxCell id="j4--80lrZNphZKlG1s33-13" value="+id : String&lt;div&gt;+comment&lt;/div&gt;" style="text;strokeColor=none;fillColor=none;align=left;verticalAlign=top;spacingLeft=4;spacingRight=4;overflow=hidden;rotatable=0;points=[[0,0.5],[1,0.5]];portConstraint=eastwest;whiteSpace=wrap;html=1;" parent="j4--80lrZNphZKlG1s33-12" vertex="1">
                    <mxGeometry y="26" width="160" height="44" as="geometry"/>
                </mxCell>
                <mxCell id="j4--80lrZNphZKlG1s33-14" value="" style="line;strokeWidth=1;fillColor=none;align=left;verticalAlign=middle;spacingTop=-1;spacingLeft=3;spacingRight=3;rotatable=0;labelPosition=right;points=[];portConstraint=eastwest;strokeColor=inherit;" parent="j4--80lrZNphZKlG1s33-12" vertex="1">
                    <mxGeometry y="70" width="160" height="90" as="geometry"/>
                </mxCell>
                <mxCell id="j4--80lrZNphZKlG1s33-15" value="Comment by" style="endArrow=open;html=1;endSize=12;startArrow=diamondThin;startSize=14;startFill=0;edgeStyle=orthogonalEdgeStyle;rounded=0;entryX=0.369;entryY=-0.004;entryDx=0;entryDy=0;entryPerimeter=0;exitX=0.5;exitY=1;exitDx=0;exitDy=0;" parent="WIyWlLk6GJQsqaUBKTNV-1" source="j4--80lrZNphZKlG1s33-12" target="U9Vl8CcKDBj28J9De0o6-0" edge="1">
                    <mxGeometry relative="1" as="geometry">
                        <mxPoint x="70" y="170" as="sourcePoint"/>
                        <mxPoint x="200" y="100" as="targetPoint"/>
                    </mxGeometry>
                </mxCell>
                <mxCell id="j4--80lrZNphZKlG1s33-16" value="0..n" style="edgeLabel;resizable=0;html=1;align=left;verticalAlign=top;" parent="j4--80lrZNphZKlG1s33-15" connectable="0" vertex="1">
                    <mxGeometry x="-1" relative="1" as="geometry">
                        <mxPoint x="-31" as="offset"/>
                    </mxGeometry>
                </mxCell>
                <mxCell id="j4--80lrZNphZKlG1s33-17" value="1" style="edgeLabel;resizable=0;html=1;align=right;verticalAlign=top;" parent="j4--80lrZNphZKlG1s33-15" connectable="0" vertex="1">
                    <mxGeometry x="1" relative="1" as="geometry">
                        <mxPoint x="30" y="-23" as="offset"/>
                    </mxGeometry>
                </mxCell>
                <mxCell id="j4--80lrZNphZKlG1s33-21" value="belong to" style="endArrow=open;html=1;endSize=12;startArrow=diamondThin;startSize=14;startFill=0;edgeStyle=orthogonalEdgeStyle;rounded=0;entryX=0;entryY=0.934;entryDx=0;entryDy=0;entryPerimeter=0;exitX=1;exitY=0.5;exitDx=0;exitDy=0;" parent="WIyWlLk6GJQsqaUBKTNV-1" source="j4--80lrZNphZKlG1s33-12" target="U9Vl8CcKDBj28J9De0o6-5" edge="1">
                    <mxGeometry relative="1" as="geometry">
                        <mxPoint x="220" y="112.5" as="sourcePoint"/>
                        <mxPoint x="239" y="351.5" as="targetPoint"/>
                    </mxGeometry>
                </mxCell>
                <mxCell id="j4--80lrZNphZKlG1s33-22" value="0..n" style="edgeLabel;resizable=0;html=1;align=left;verticalAlign=top;" parent="j4--80lrZNphZKlG1s33-21" connectable="0" vertex="1">
                    <mxGeometry x="-1" relative="1" as="geometry">
                        <mxPoint x="10" as="offset"/>
                    </mxGeometry>
                </mxCell>
                <mxCell id="j4--80lrZNphZKlG1s33-23" value="1" style="edgeLabel;resizable=0;html=1;align=right;verticalAlign=top;" parent="j4--80lrZNphZKlG1s33-21" connectable="0" vertex="1">
                    <mxGeometry x="1" relative="1" as="geometry">
                        <mxPoint x="-20" y="-23" as="offset"/>
                    </mxGeometry>
                </mxCell>
                <mxCell id="0" value="Reset password" style="swimlane;fontStyle=1;align=center;verticalAlign=top;childLayout=stackLayout;horizontal=1;startSize=26;horizontalStack=0;resizeParent=1;resizeParentMax=0;resizeLast=0;collapsible=1;marginBottom=0;whiteSpace=wrap;html=1;" vertex="1" parent="WIyWlLk6GJQsqaUBKTNV-1">
                    <mxGeometry x="30" y="780" width="160" height="160" as="geometry"/>
                </mxCell>
                <mxCell id="1" value="+id : String&lt;div&gt;+isValid : Boolean&lt;/div&gt;" style="text;strokeColor=none;fillColor=none;align=left;verticalAlign=top;spacingLeft=4;spacingRight=4;overflow=hidden;rotatable=0;points=[[0,0.5],[1,0.5]];portConstraint=eastwest;whiteSpace=wrap;html=1;" vertex="1" parent="0">
                    <mxGeometry y="26" width="160" height="44" as="geometry"/>
                </mxCell>
                <mxCell id="3" style="edgeStyle=none;html=1;exitX=0.5;exitY=1;exitDx=0;exitDy=0;" edge="1" parent="0" source="0" target="2">
                    <mxGeometry relative="1" as="geometry"/>
                </mxCell>
                <mxCell id="2" value="" style="line;strokeWidth=1;fillColor=none;align=left;verticalAlign=middle;spacingTop=-1;spacingLeft=3;spacingRight=3;rotatable=0;labelPosition=right;points=[];portConstraint=eastwest;strokeColor=inherit;" vertex="1" parent="0">
                    <mxGeometry y="70" width="160" height="90" as="geometry"/>
                </mxCell>
                <mxCell id="4" style="edgeStyle=none;html=1;exitX=1;exitY=1;exitDx=0;exitDy=0;" edge="1" parent="0" source="0" target="2">
                    <mxGeometry relative="1" as="geometry"/>
                </mxCell>
                <mxCell id="5" value="Belongs to" style="endArrow=open;html=1;endSize=12;startArrow=diamondThin;startSize=14;startFill=0;edgeStyle=orthogonalEdgeStyle;rounded=0;exitX=0.5;exitY=0;exitDx=0;exitDy=0;entryX=0.531;entryY=0.988;entryDx=0;entryDy=0;entryPerimeter=0;" edge="1" parent="WIyWlLk6GJQsqaUBKTNV-1" source="0" target="U9Vl8CcKDBj28J9De0o6-3">
                    <mxGeometry relative="1" as="geometry">
                        <mxPoint x="271" y="735" as="sourcePoint"/>
                        <mxPoint x="140" y="530" as="targetPoint"/>
                    </mxGeometry>
                </mxCell>
                <mxCell id="6" value="0..n" style="edgeLabel;resizable=0;html=1;align=left;verticalAlign=top;" connectable="0" vertex="1" parent="5">
                    <mxGeometry x="-1" relative="1" as="geometry">
                        <mxPoint x="-40" y="-30" as="offset"/>
                    </mxGeometry>
                </mxCell>
                <mxCell id="7" value="1" style="edgeLabel;resizable=0;html=1;align=right;verticalAlign=top;" connectable="0" vertex="1" parent="5">
                    <mxGeometry x="1" relative="1" as="geometry">
                        <mxPoint x="25" y="-1" as="offset"/>
                    </mxGeometry>
                </mxCell>
            </root>
        </mxGraphModel>
    </diagram>
</mxfile>